<svg xmlns="http://www.w3.org/2000/svg" viewBox="0 0 512 160"><path fill="#d19a2a" d="M206.479.211c-8.496.252-17 1.533-25.516 4.463v19.623c9.084-3.27 18.167-4.361 27.252-4.361v138.447H230.746V21.389c12.355 1.817 24.71 4.36 37.065 5.814v131.18h21.802V28.656c9.085 0 18.168-1.452 27.252-4.359V4.674C279.96 17.37 243.295-.88 206.48.211Zm-72.03 3.373c-7.63 0-14.17 1.09-19.984 3.27-5.45 2.18-9.812 5.452-13.082 9.812-3.27 4.36-5.814 9.811-7.268 15.625-1.453 6.178-2.18 13.082-2.18 21.076v55.596c0 7.994.727 15.262 2.18 21.076 1.817 6.178 3.997 11.628 7.268 15.989 3.27 4.36 7.631 7.995 13.082 10.175 5.45 2.18 11.99 3.633 19.984 3.633 7.631 0 14.173-1.089 19.623-3.633 5.45-2.543 9.812-5.815 13.082-10.539 3.27-4.724 5.814-9.81 7.268-15.988 1.453-6.177 2.18-13.082 2.18-21.076V53.367c0-16.352-3.27-28.706-9.811-37.064-6.54-8.721-17.443-12.719-32.342-12.719zM0 4.674v153.709h38.518c13.445 0 24.347-3.998 31.978-11.992 7.994-7.994 11.627-18.532 11.627-31.977 0-10.901-2.18-19.258-6.904-25.072S63.954 79.167 54.506 75.897c8.358-2.18 14.9-6.179 18.896-10.903C77.4 59.907 79.58 52.64 79.58 43.192c0-6.541-1.091-12.354-3.271-17.442-2.18-5.087-5.45-9.085-9.811-11.992-4.36-2.907-9.084-5.45-14.535-6.904-5.45-1.454-11.99-2.18-18.895-2.18Zm337.215 0-33.067 153.709h22.166l8.358-38.518h27.252l8.36 38.518h21.802L359.018 4.674Zm62.139 0v153.709h21.802V86.797h16.715l22.166 71.223h21.803l-24.71-76.672c6.178-2.18 10.9-6.541 14.17-12.719 3.271-6.177 4.725-13.808 4.725-22.892 0-14.899-3.997-25.438-12.355-31.616-8.358-6.177-20.713-9.447-37.065-9.447zm90.843 0v153.709H512V4.674ZM22.53 21.026h8.721c2.18 0 4.724.363 7.994.363 3.27.363 5.45.728 7.268 1.092 1.817.726 3.634 1.453 5.814 2.543s3.635 2.179 4.725 3.996c1.09 1.453 1.816 3.634 2.543 5.814.727 2.18 1.09 5.087 1.09 7.994 0 18.17-9.083 27.254-27.252 27.254H22.529Zm111.92 0c7.631 0 13.083 2.18 15.99 6.54 2.907 4.361 4.36 10.903 4.36 19.987v66.498c0 9.084-1.453 15.99-4.36 20.35-2.907 4.724-8.359 6.904-15.99 6.904-7.63 0-13.081-2.18-15.988-6.904s-4.36-11.629-4.36-20.35V47.553c0-9.084 1.453-15.626 4.36-19.986 2.907-4.36 8.357-6.541 15.988-6.541zm287.07 0h5.45c9.084 0 15.989 1.817 20.713 5.814s6.904 10.175 6.904 18.897c0 8.72-2.18 14.897-6.904 18.894-4.724 3.997-11.265 5.815-20.713 5.815h-5.45zm-73.402 16.716 10.9 65.772h-21.802ZM22.166 86.797h10.902c9.448 0 16.35 2.18 20.711 6.541 4.36 4.36 6.541 11.265 6.541 20.713s-2.18 16.352-6.54 20.713c-4.361 4.36-11.264 6.54-20.712 6.54H22.166Z"/></svg>