<svg xmlns="http://www.w3.org/2000/svg" viewBox="0 0 1024 724"><path fill="#382f39" d="M0 0h1024v724H0Z"/><g fill="none" stroke="#d19a2a"><path stroke-width=".61" d="M420.72 103.75c.48 0 1.46-.73 4.25-3.4l1.83.36 1.58 3.9c-9 9.97-12.65 12.64-17.27 12.64-2.8 0-4.14-1.34-4.14-3.9 0-1.09.37-3.15 2.07-9.96h-.85a39.65 39.65 0 0 1-10.83 13.86c-7.78 0-12.28-4.74-12.28-12.77 0-12.9 10.7-26.64 20.68-26.64l5.83 1.58.37-1.58 1.58-.97 10.95.97.6 1.83s-3.04 13.38-4.86 23.84zm-11.31-15.2a12.53 12.53 0 0 0-6.09-2.07c-1.58 0-3.4 6.93-3.4 12.9 0 3.15.48 5.34 1.1 5.34 1.94 0 6.2-8.39 8.39-16.17zm27.73-54c0-1.83-.85-2.68-2.68-2.68h-2.31l.97-6.7c7.42 0 18.5-.97 18.5-.97l1.33 1.59s-4.01 19.46-6.57 34.3h.85c4.38-7.79 7.3-11.56 10.58-13.87 8.27 0 13.02 4.99 13.02 13.5 0 13.87-10.46 26.03-22.5 26.03-10.83 0-17.03-4.87-17.03-4.87l-1.1-2.06c0-.13 6.94-41.72 6.94-44.28zm9.6 39.16s2.44 2.07 4.63 2.07c2.55 0 4.62-5.6 4.62-12.78 0-3.16-.37-5.6-1.1-5.6-1.7.13-6.08 8.89-8.14 16.3z"/><path stroke-dasharray="0, 7.29778" stroke-linecap="round" stroke-width="1.22" d="m768.21 560.1-53.76 35.76"/><path stroke-width=".61" d="M816.74 58.14h59.48v60.33h-59.48zM828.3 93.53l13.62-83.68M830.97 93.9l13.63-83.68m-10.95 84.16 13.5-83.68m-10.82 84.05 13.5-83.56M839 95.24l13.5-83.69M841.68 95.6l13.5-83.56M844.35 96.1l13.5-83.68m-10.82 84.04 13.5-83.56M849.7 96.94l13.5-83.68m-10.94 84.17 13.62-83.69M854.93 97.8l13.63-83.68M857.6 98.28l13.5-83.68M860.3 98.64l13.5-83.68m-10.83 84.17 13.5-83.68m-10.82 84.04 13.5-83.68M868.3 99.98l13.5-83.68M871 100.34l13.5-83.56m-10.82 84.05 13.5-83.68m-10.95 84.05 13.62-83.56m-10.94 84.04L892.52 18m-10.95 84.05 13.5-83.56m-10.82 84.04 13.5-83.68m-10.83 84.17 13.5-83.68m-10.82 84.05 13.5-83.69m-10.82 84.17 13.5-83.68m-10.83 84.05 13.5-83.68m-10.82 84.16 13.5-83.68m-10.95 84.05L913.8 21.4m-10.94 84.16 13.62-83.68m-10.95 84.05 13.5-83.56m-10.82 84.05 13.5-83.69m-10.83 84.05 13.5-83.56M892.15 669.33l43.3-116.64 43.3 116.64m0 0c0 6.69-19.34 12.04-43.3 12.04-23.96 0-43.3-5.47-43.3-12.04"/><path stroke-dasharray="0, 7.29778" stroke-linecap="round" stroke-width="1.22" d="M892.15 669.33c0-6.7 19.34-12.04 43.3-12.04 23.96 0 43.3 5.47 43.3 12.04"/><path stroke-width=".61" d="M632.84 681.86h-94.87v-95m-7.79 9a66.04 66.04 0 0 0 112.75 46.7"/><path stroke-width=".61" d="m986.54 171.62-4.5 20.31-32.84.12-32.72.12-1.22-1.94 5.23-20.2 32.96.13c11.68 0 32.24-.85 32.24-.85zm3.65-29.92L985.8 162l-32.96.12-32.72.12-1.1-1.94 5.11-20.2 33.2.13c11.56 0 32.12-.85 32.12-.85z"/><path stroke-width=".61" d="m221.6 211.76 3.66 7.3c-.61 6.93-34.67 37.34-41.6 37.34-28.22 0-39.16-12.41-35.88-39.78l8.76-69.57c1.21-10.58-.37-13.38-7.3-13.38-7.3 0-8.51 1.22-10.34 11.2l-12.16 94.5a845.64 845.64 0 0 0-3.04 28.82l-4.02 4.5-51.32 8.52-2.44-5.11c2.2-4.87 19.46-117.5 19.46-130.27 0-6.32-1.46-8.15-4.86-8.15-7.54 0-22.14 9.98-22.14 9.98l-3.04.36-8.15-20.92.85-2.67 29.8-22.75 4.87-2.07c33.45 0 83.56 3.05 100.83 3.05 25.18 0 61.9-3.05 61.9-3.05l1.47 2.07-8.15 29.2-2.43 2.06c-19.1 0-22.75 2.43-26.76 16.66-1.83 6.94-7.54 37.95-7.54 48.05.12 11.67 4.74 14.1 19.58 14.1z"/><path stroke-dasharray="0, 7.29778" stroke-linecap="round" stroke-width="1.22" d="m232.43 176.48 142.68-60.08"/><path stroke-width=".61" d="m866.85 489.8 1.22 2.68-4.01 15.81-54.25.12-1.22-2.8 3.41-15.69h31.99zm6.94-50.96-2.8 22.87-27 11.55a513.52 513.52 0 0 0-22.75 10.46l-2.55-1.58-3.16-15.69s13.86-5.35 25.05-10.1l13.14-5.83.12-1.22-13.26-7.3-19.58-9.6-1.1-3.17 9.98-13.74 18.85 9.36 4.02 1.95c6.56 3.28 12.64 6.57 20.06 9.85zm-6.94 50.96v-.12zM198.86 715.91l-149.24-2.19-29.8 3.65-9.72-24.45 81.12-88.66L40.26 497.7l8.27-15.81h16.9c32.6 0 64.96.36 97.55.36l63.5-3.9 3.64 3.9c-3.28 30.53-6.8 79.3-6.8 79.3l-43.8 6.09c2.56-27.98-3.89-39.53-26.15-43.43l-31.25-4.98 33.08 71.4-1.83 15.44-66.4 72.13 53.88-7.9c20.8-2.56 30.9-15.1 37.7-44.89l45.98-3.28s-12.9 52.42-17.27 85.74z"/><circle cx="719.2" cy="591.36" r="16.91" stroke-width=".61"/></g><g fill="#d19a2a"><path d="M448.7 118.71c0 4.14 1.33 6.33 3.88 6.33 2.07 0 4.38-2.07 6.09-6.09l1.7.25 4.26 4.74c-2.56 6.81-10.34 12.53-17.03 12.53-8.03 0-13.26-5.72-13.26-14.6 0-14.23 10.34-25.78 22.99-25.78 3.28 0 6.69.73 8.88 1.94l.36 1.46-4.13 10.58-3.53.13c-1.34-2.92-2.8-4.26-4.87-4.26-3.16 0-5.35 5.35-5.35 12.77"/><path d="m538.79 627.84-.82 5.02v3.76l1.26-7.75-.44-1.03zm1.68 3.42-2.5 15.33v3.76l2.98-18.28-.48-.81zm1.77 2.84-4.27 26.2v3.77l4.77-29.25-.5-.72zm1.83 2.53-6.1 37.39v3.77l6.6-40.52-.5-.64zm1.8 2.2-6.91 42.78h.61l6.8-42.17-.5-.6zm1.88 2.13-6.55 40.65h.61l6.47-40.1-.53-.55zm1.92 1.96-6.25 38.7h.61l6.17-38.18-.53-.52zm1.93 1.83-5.95 36.86h.61l5.87-36.37-.53-.49zm1.96 1.73-5.67 35.13h.61l5.6-34.69-.54-.44zm1.98 1.6-5.41 33.53h.6l5.35-33.1-.54-.43zm2 1.5-5.18 32.03h.62l5.1-31.63-.55-.4zm2 1.4-4.94 30.63h.62l4.88-30.25-.55-.38zm2.03 1.31-4.73 29.32h.61l4.68-28.97c-.2-.11-.37-.23-.56-.35zm2.04 1.22-4.53 28.1h.61l4.48-27.78-.56-.32zm2.06 1.12-4.35 26.98h.6l4.31-26.68-.56-.3zm2.07 1.03-4.19 25.95h.62l4.14-25.67-.57-.28zm2.09.95-4.04 25h.62l3.99-24.75-.57-.25zm2.09.85-3.9 24.15h.6l3.87-23.92-.57-.23zm2.04.75-3.81 23.4h.61l3.79-23.2-.59-.2zm2.13.68-3.7 22.72h.6l3.69-22.55-.59-.17zm2.14.59-3.6 22.13h.6l3.6-21.98-.6-.15zm2.16.5-3.53 21.63h.61l3.51-21.5-.59-.13zm2.11.4-3.42 21.23h.6l3.42-21.13-.6-.1zm2.19.33-3.38 20.9h.62l3.36-20.84-.6-.06zm1.82 2.54-2.96 18.36h.61l2.35-14.56zm0 13.87-.72 4.5h.61l.11-.7z" color="#000" style="-inkscape-stroke:none"/><path d="M974.38 431.54c0-8.51 4.62-13.13 10.94-13.13 4.5 0 7.3 2.8 7.3 8.39 0 8.63-4.62 13.26-10.83 13.26-4.62-.13-7.41-2.92-7.41-8.52m35.51-11.07-15.81 24.33L983 462.2l-5.47-2.08-.37-.97s6.45-9.36 11.31-17.03l15.57-24.93 5.11 1.82zM987.75 429c0-1.7-1.33-2.43-4.25-2.43-3.17 0-4.38.85-4.38 2.8 0 1.57 1.34 2.43 4.26 2.43 3.16.12 4.37-.86 4.37-2.8m9.86 20.19c0-8.52 4.62-13.14 10.94-13.14 4.63 0 7.3 2.8 7.3 8.4 0 8.63-4.62 13.25-10.82 13.25-4.5-.12-7.42-2.92-7.42-8.51m13.38-2.43c0-1.7-1.34-2.44-4.26-2.44-3.16 0-4.38.85-4.38 2.8 0 1.58 1.34 2.43 4.26 2.43 3.28 0 4.38-.97 4.38-2.8"/><path d="M48.9 349.56c1.82-3.04 5.1-7.66 10.46-7.66 5.35 0 8.14 4.87 8.14 9.97 0 8.64-6.08 14.84-12.28 14.84-5.1 0-7.66-3.52-9.37-7.78-1.7 3.04-4.86 7.78-10.33 7.78-5.36 0-8.27-4.86-8.27-9.97 0-8.64 6.2-14.84 12.4-14.84 4.62 0 7.42 3.4 9.25 7.66m-4.02 6.81c-1.7-4.86-3.4-9.6-7.66-9.6-3.29 0-6.57 3.16-6.57 8.02 0 3.77 2.19 6.57 6.33 6.57 4.13.12 6.56-2.8 7.9-4.99m4.87-4.25c1.7 5.1 3.52 9.73 7.66 9.73 3.28 0 6.57-3.16 6.57-8.03 0-3.65-2.2-6.57-6.45-6.57-4.01 0-6.45 2.8-7.78 4.87m711.77 268.56c0-6.45 4.14-10.59 10.22-10.59 4.74 0 7.3 2.68 7.3 7.18 0 6.33-4.14 10.46-10.22 10.46-4.74.12-7.3-2.43-7.3-7.05m3.4-26.88.5-1.34 8.75-4.14c3.17-1.58 4.75-3.52 4.75-5.47 0-3.9-4.5-6.2-13.14-6.57l-1.1-1.58 4.87-10.46 1.58-.85c14.11.36 23.96 6.81 23.96 15.2 0 6.2-3.65 10.58-16.3 18.25l-.24.48-.12 5.96-.85 1.22-10.7 1.82-1.22-.73z"/></g><path fill="#fff" d="M472.3 298.04a68.44 68.44 0 0 0-20.45 3.58v15.73c7.28-2.63 14.56-3.5 21.84-3.5v110.99h18.07V315.02c9.9 1.45 19.8 3.49 29.7 4.66v105.16h17.49v-104c7.28 0 14.56-1.16 21.84-3.5v-15.72c-29.58 10.17-58.97-4.46-88.49-3.58zm-57.74 2.7c-6.12 0-11.36.88-16.02 2.62a23.86 23.86 0 0 0-10.49 7.87 35.43 35.43 0 0 0-5.82 12.52 73.5 73.5 0 0 0-1.75 16.9v44.57c0 6.4.58 12.23 1.75 16.9 1.45 4.95 3.2 9.31 5.82 12.81s6.12 6.41 10.49 8.16a42.54 42.54 0 0 0 16.02 2.91c6.12 0 11.36-.87 15.73-2.91 4.37-2.04 7.87-4.66 10.49-8.45a36.87 36.87 0 0 0 5.82-12.82 73.5 73.5 0 0 0 1.75-16.9v-44.27c0-13.1-2.62-23.01-7.86-29.71-5.25-7-13.99-10.2-25.93-10.2zm-107.78.88v123.22h30.88c10.78 0 19.51-3.21 25.63-9.62 6.41-6.4 9.32-14.85 9.32-25.63 0-8.74-1.74-15.44-5.53-20.1-3.79-4.66-9.03-8.16-16.6-10.78 6.7-1.75 11.94-4.95 15.14-8.74 3.2-4.08 4.95-9.9 4.95-17.48 0-5.24-.87-9.9-2.62-13.98a21.36 21.36 0 0 0-7.86-9.61 39.12 39.12 0 0 0-11.65-5.54 60.1 60.1 0 0 0-15.15-1.74zm270.33 0L550.6 424.84h17.77l6.7-30.88h21.84l6.7 30.88h17.48l-26.5-123.22Zm49.8 0v123.22h17.49v-57.4h13.4l17.76 57.1h17.48l-19.8-61.46c4.95-1.75 8.73-5.24 11.35-10.2 2.63-4.95 3.8-11.06 3.8-18.35 0-11.94-3.21-20.39-9.91-25.34-6.7-4.95-16.6-7.57-29.72-7.57zm72.83 0v123.22h17.48V301.62Zm-374.9 13.1h7c1.74 0 3.78.3 6.4.3 2.62.29 4.37.58 5.83.87 1.45.58 2.91 1.17 4.66 2.04 1.74.87 2.91 1.75 3.79 3.2.87 1.17 1.45 2.92 2.03 4.66.59 1.75.88 4.08.88 6.41 0 14.57-7.28 21.85-21.85 21.85h-8.74zm89.72 0c6.12 0 10.49 1.75 12.82 5.25s3.5 8.74 3.5 16.02v53.3c0 7.29-1.17 12.83-3.5 16.32-2.33 3.79-6.7 5.53-12.82 5.53s-10.49-1.74-12.82-5.53-3.5-9.32-3.5-16.31v-53.31c0-7.28 1.17-12.53 3.5-16.02 2.33-3.5 6.7-5.25 12.82-5.25zm230.13 0h4.37c7.28 0 12.81 1.46 16.6 4.66 3.79 3.2 5.54 8.16 5.54 15.15 0 7-1.75 11.95-5.54 15.15-3.79 3.2-9.03 4.66-16.6 4.66h-4.37zm-58.84 13.4 8.73 52.73h-17.47Zm-261.3 39.33h8.74c7.57 0 13.1 1.75 16.6 5.24 3.5 3.5 5.24 9.03 5.24 16.6 0 7.58-1.74 13.12-5.24 16.61-3.5 3.5-9.03 5.24-16.6 5.24h-8.74z"/></svg>